<svg version="1" xmlns="http://www.w3.org/2000/svg" width="933.333" height="933.333" viewBox="0 0 700.000000 700.000000"><path d="M335.9 63.4c-.2.2-4.4.6-9.2 1-4.8.4-9.3.9-10 1.1-.7.2-3 .7-5.2 1-8.5 1.2-11.1 1.7-20.9 4-41.6 9.6-80.9 28.7-114.9 56-14.8 11.9-37.8 35-44.7 44.9-.8 1.1-2.3 3-3.3 4.1-3.1 3.4-18.2 26.4-23.5 36.2-14 25.2-26.5 60.1-30.7 85.3-.3 1.9-.8 4.6-1 6-.6 2.8-1.1 6.8-2 15.5-.3 3.3-.8 7.6-1.1 9.5-.6 4.2-.6 40.7 0 43.5.2 1.1.7 5.6 1 10 .4 4.4.9 8.7 1.1 9.5.2.8.6 3.3 1 5.5 5.6 38.6 23.4 82.6 47.3 117 4.8 6.9 11.6 15.9 13.2 17.5.3.3 3 3.4 6 7 33 39.1 82.6 71.4 132.5 86.4 14.4 4.4 14.6 4.4 22.5 6 25.5 5.1 35.6 6.1 63 6.1 23.4 0 33.3-.7 51-3.6 110.9-18 190.7-93.4 215.5-203.8 1.5-6.3 2.8-13.3 3.1-15.5.3-2.3.9-6.6 1.4-9.6.5-3 1.2-8.9 1.6-13 .3-4.1.8-9.1 1-11 .5-4.3.5-42.3 0-46.5-.2-1.7-.6-6.5-1-10.7-.4-4.2-.9-8.5-1-9.5-.2-1-.9-5.2-1.6-9.5l-1.2-7.6-135.1.1-135 .2-.1 54.8c-.1 30.2.2 55.3.5 55.9.4.6 27.8 1 78.3 1 42.7 0 77.6.2 77.6.4 0 2.1-2.8 12.7-5.1 19.6-14.2 41.6-45.9 72.1-89.8 86.8-12.3 4.1-27.1 7.4-38.6 8.6-9.5 1-31.8 1.1-38.5.2-3-.4-7.7-1-10.5-1.3-11.8-1.5-32.2-7.8-45.4-14.1-40.8-19.7-73.8-56.1-89.1-98.4-3.6-9.9-7.7-25.5-8.5-32-.3-2.5-.9-6.8-1.4-9.7-.4-2.9-.7-12.3-.6-21 .4-27.7 5.8-50.2 17.9-75 3.3-6.6 12-21.4 14.5-24.5.6-.7 3.2-4 5.7-7.3 18.6-23.7 45.8-43.6 73.9-54.3 8.3-3.2 22.3-7.3 26.3-7.8 1.2-.1 5.5-.8 9.5-1.5 12-2.1 38.6-1.7 53.7.8 26.8 4.4 58.3 19.9 77.7 38.2 1.2 1.2 2.6 2.1 3 2.1.4 0 18.9-18.1 40.9-40.1l40.2-40.2-6.2-5.4C509.5 103.9 466.3 81 427 71.5c-23.9-5.7-40.2-7.7-67.1-8.1-13-.2-23.8-.2-24 0z"/></svg>